<svg version="1.1" id="Layer_1" xmlns="http://www.w3.org/2000/svg" xmlns:xlink="http://www.w3.org/1999/xlink" x="0px" y="0px"
	 width="100%" viewBox="0 0 956 132" enable-background="new 0 0 956 132" xml:space="preserve">
<path fill="#FEFEFE" opacity="1.000000" stroke="none" 
	d="
M701.000000,133.000000 
	C467.386902,133.000000 234.273788,133.000000 1.080343,133.000000 
	C1.080343,89.063797 1.080343,45.127403 1.080343,1.095505 
	C319.666656,1.095505 638.333313,1.095505 956.970520,1.095505 
	C956.970520,45.059521 956.970520,89.029770 956.970520,133.000000 
	C871.794006,133.000000 786.647034,133.000000 701.000000,133.000000 
M805.513123,76.048309 
	C810.656433,92.553703 815.894714,109.030632 820.859680,125.589516 
	C821.806274,128.746628 823.221741,129.751343 826.425598,129.662766 
	C834.250854,129.446472 842.091248,129.425735 849.915039,129.667282 
	C853.460632,129.776733 855.290894,128.793808 856.227539,125.160896 
	C857.844055,118.891060 860.014221,112.763840 861.956665,106.578201 
	C865.326599,95.846802 868.699890,85.116486 872.382141,73.398209 
	C873.494385,76.860939 874.268250,79.223129 875.012451,81.594627 
	C879.591309,96.185707 884.265869,110.748154 888.659668,125.394798 
	C889.653198,128.706512 891.144653,129.806641 894.593750,129.679916 
	C902.247986,129.398682 909.925598,129.415161 917.581848,129.668091 
	C921.323181,129.791687 923.027344,128.720932 924.185974,124.887787 
	C931.785461,99.746109 939.724792,74.707245 947.531067,49.627941 
	C948.882019,45.287834 950.128113,40.915054 951.502258,36.289112 
	C939.881714,36.289112 929.099243,36.289112 918.195740,36.289112 
	C913.034180,54.547733 907.922241,72.630867 902.465576,91.933517 
	C901.419983,88.777893 900.722473,86.928429 900.192322,85.032188 
	C896.029785,70.145195 891.972656,55.227913 887.656006,40.386040 
	C887.175598,38.734390 885.326172,36.315189 884.023132,36.257706 
	C875.559082,35.884285 867.070618,36.066074 858.343811,36.066074 
	C853.091797,54.666271 847.909607,73.019287 842.444580,92.373817 
	C836.986938,73.052017 831.803589,54.701107 826.625244,36.368008 
	C815.384644,36.368008 804.497986,36.368008 793.196045,36.368008 
	C797.291565,49.606396 801.264954,62.449848 805.513123,76.048309 
M41.500008,6.064898 
	C29.931328,6.064898 18.362648,6.064898 6.738354,6.064898 
	C6.738354,47.509941 6.738354,88.242233 6.738354,129.249680 
	C17.239874,129.249680 27.478666,129.249680 38.172626,129.249680 
	C38.172626,123.262802 38.172626,117.469498 38.172626,111.676193 
	C38.172626,105.923988 38.172626,100.171783 38.172626,94.348587 
	C39.924438,94.265907 40.909290,94.182014 41.894428,94.178535 
	C56.715561,94.126114 71.548676,94.441887 86.354782,93.947105 
	C103.855583,93.362259 113.689598,84.337212 115.027740,67.023628 
	C115.908371,55.629574 115.799530,44.057716 114.940201,32.655426 
	C113.791817,17.417564 105.020432,8.209561 89.900017,7.083390 
	C74.162033,5.911223 58.304996,6.337533 41.500008,6.064898 
M680.151611,65.611252 
	C680.172913,78.438599 679.912354,91.274155 680.285889,104.091232 
	C680.767822,120.625916 690.270691,130.768646 705.599976,131.070724 
	C721.086548,131.375916 736.589294,131.356750 752.075623,131.031281 
	C766.487366,130.728409 776.582947,120.801186 776.948608,106.346649 
	C777.348694,90.532265 777.308533,74.693153 776.937134,58.877098 
	C776.639526,46.206749 767.632446,35.778725 755.012512,35.129826 
	C737.429749,34.225735 719.764099,34.802971 702.137390,35.026058 
	C699.443481,35.060154 696.606079,36.268227 694.112671,37.496712 
	C682.815613,43.062748 680.192017,53.221378 680.151611,65.611252 
M510.370392,106.969124 
	C499.228363,107.409927 488.089142,107.963242 476.943024,108.240364 
	C471.954163,108.364410 470.083038,106.310684 469.866058,101.328781 
	C469.781372,99.384079 469.852234,97.432594 469.852234,94.930519 
	C490.333710,94.930519 510.366943,94.930519 530.556580,94.930519 
	C530.556580,82.909714 531.163940,71.407608 530.408875,59.995651 
	C529.373047,44.340908 520.881714,35.558193 505.568726,34.664047 
	C491.800446,33.860100 477.912048,33.843975 464.144043,34.642326 
	C448.765503,35.534065 439.437225,45.225616 439.106171,59.774872 
	C438.746399,75.585060 438.769775,91.415047 439.100952,107.226456 
	C439.377960,120.452843 449.131989,131.001862 461.977631,130.906357 
	C483.544647,130.746063 505.103821,129.532303 526.845337,128.755386 
	C526.845337,120.453308 526.845337,113.379776 526.845337,105.809868 
	C521.503540,106.197212 516.409851,106.566566 510.370392,106.969124 
M265.956573,125.485916 
	C268.562012,124.100243 271.167419,122.714569 274.105835,121.151794 
	C274.883575,124.087341 275.585724,126.737495 276.246185,129.230438 
	C285.372009,129.230438 294.143433,129.230438 302.977325,129.230438 
	C302.977325,104.474617 303.404053,80.000954 302.782745,55.553917 
	C302.505615,44.648918 293.428070,35.733391 282.359802,35.067184 
	C270.443207,34.349918 258.420837,34.966690 246.464386,35.470478 
	C237.360367,35.854084 228.287231,36.970676 219.086243,37.771095 
	C219.086243,45.367191 219.086243,52.449043 219.086243,59.646622 
	C220.957520,59.646622 222.582870,59.730404 224.197372,59.633327 
	C236.826874,58.873901 249.448196,57.954910 262.084351,57.336857 
	C271.749817,56.864109 274.405670,60.602100 271.563721,70.476166 
	C266.162689,70.476166 260.680389,70.425697 255.199371,70.488228 
	C247.375275,70.577492 239.520920,70.359329 231.736130,70.981262 
	C221.106262,71.830498 212.734421,78.966965 211.037079,89.488464 
	C209.889053,96.604759 209.744370,104.164291 210.780655,111.288521 
	C212.524277,123.275734 221.959427,130.578064 234.131210,131.172546 
	C244.931396,131.700027 255.373474,130.443909 265.956573,125.485916 
M618.853577,34.265697 
	C607.934753,35.214626 597.795410,38.605747 588.107666,44.603851 
	C587.240906,41.478359 586.510071,38.842960 585.830444,36.392380 
	C576.675232,36.392380 567.921448,36.392380 559.058838,36.392380 
	C559.058838,67.483536 559.058838,98.244026 559.058838,129.172607 
	C569.321411,129.172607 579.359375,129.172607 589.737183,129.172607 
	C589.737183,126.937584 589.737122,125.122383 589.737122,123.307182 
	C589.737122,104.819519 589.847168,86.330635 589.641174,67.845268 
	C589.601685,64.304413 590.655945,62.545895 594.066284,62.173824 
	C600.991028,61.418335 607.902466,60.380123 614.848328,60.026791 
	C621.294739,59.698860 622.984314,61.723583 622.990112,68.363564 
	C623.006226,86.851212 622.995789,105.338875 622.995789,123.826538 
	C622.995789,125.598320 622.995789,127.370094 622.995789,129.177551 
	C633.617188,129.177551 643.652771,129.177551 653.870972,129.177551 
	C653.870972,105.122047 654.237976,81.474045 653.723083,57.845261 
	C653.447083,45.181824 644.828918,36.593513 632.226562,34.807823 
	C628.133789,34.227905 623.931213,34.422836 618.853577,34.265697 
M345.851288,38.100491 
	C334.909912,42.719868 329.973450,51.307652 329.867889,62.840271 
	C329.735199,77.333153 329.640625,91.831558 329.891327,106.321327 
	C330.149994,121.272926 340.342529,131.045090 355.386902,131.149384 
	C362.048126,131.195557 368.726807,131.271149 375.369659,130.870392 
	C388.266052,130.092361 401.142700,128.987137 413.924164,128.025253 
	C413.924164,119.894012 413.924164,112.512764 413.924164,104.958511 
	C411.723785,105.081520 409.908600,105.180206 408.093781,105.284889 
	C395.461853,106.013542 382.834717,106.843124 370.196472,107.436592 
	C362.257690,107.809395 360.720856,106.205719 360.711578,98.434700 
	C360.699432,88.272171 360.664368,78.109352 360.725586,67.947182 
	C360.763611,61.630405 362.413422,59.978722 368.773285,59.951836 
	C382.267578,59.894791 395.762268,59.934086 409.256775,59.933884 
	C410.858643,59.933861 412.460480,59.933880 414.024658,59.933880 
	C414.024658,51.676304 414.024658,44.078754 414.024658,36.310528 
	C413.135681,36.211922 412.500275,36.080265 411.864807,36.079861 
	C393.538910,36.068157 375.212128,35.975842 356.887939,36.152596 
	C353.460114,36.185658 350.042694,37.304871 345.851288,38.100491 
M142.068573,9.729712 
	C142.068527,11.896170 142.068451,14.062628 142.068451,16.229086 
	C142.068527,45.559345 142.018463,74.889725 142.090515,104.219810 
	C142.125015,118.265259 150.187363,129.570587 162.169586,130.705551 
	C171.149139,131.556122 180.311752,130.474182 189.483398,130.250458 
	C189.483398,121.763405 189.483398,114.384819 189.483398,106.697769 
	C186.817596,106.697769 184.496216,106.709747 182.175003,106.695572 
	C174.624924,106.649467 173.005615,105.067329 173.004074,97.678848 
	C172.998047,69.015190 173.001602,40.351524 173.001602,11.687863 
	C173.001602,9.916880 173.001602,8.145896 173.001602,6.069612 
	C163.292770,6.069612 154.155396,5.985934 145.024368,6.188458 
	C144.020905,6.210715 143.053848,7.874688 142.068573,9.729712 
z"/>
<path fill="#FFBE06" opacity="1.000000" stroke="none" 
	d="
M805.375732,75.670807 
	C801.264954,62.449848 797.291565,49.606396 793.196045,36.368008 
	C804.497986,36.368008 815.384644,36.368008 826.625244,36.368008 
	C831.803589,54.701107 836.986938,73.052017 842.444580,92.373817 
	C847.909607,73.019287 853.091797,54.666271 858.343811,36.066074 
	C867.070618,36.066074 875.559082,35.884285 884.023132,36.257706 
	C885.326172,36.315189 887.175598,38.734390 887.656006,40.386040 
	C891.972656,55.227913 896.029785,70.145195 900.192322,85.032188 
	C900.722473,86.928429 901.419983,88.777893 902.465576,91.933517 
	C907.922241,72.630867 913.034180,54.547733 918.195740,36.289112 
	C929.099243,36.289112 939.881714,36.289112 951.502258,36.289112 
	C950.128113,40.915054 948.882019,45.287834 947.531067,49.627941 
	C939.724792,74.707245 931.785461,99.746109 924.185974,124.887787 
	C923.027344,128.720932 921.323181,129.791687 917.581848,129.668091 
	C909.925598,129.415161 902.247986,129.398682 894.593750,129.679916 
	C891.144653,129.806641 889.653198,128.706512 888.659668,125.394798 
	C884.265869,110.748154 879.591309,96.185707 875.012451,81.594627 
	C874.268250,79.223129 873.494385,76.860939 872.382141,73.398209 
	C868.699890,85.116486 865.326599,95.846802 861.956665,106.578201 
	C860.014221,112.763840 857.844055,118.891060 856.227539,125.160896 
	C855.290894,128.793808 853.460632,129.776733 849.915039,129.667282 
	C842.091248,129.425735 834.250854,129.446472 826.425598,129.662766 
	C823.221741,129.751343 821.806274,128.746628 820.859680,125.589516 
	C815.894714,109.030632 810.656433,92.553703 805.375732,75.670807 
z"/>
<path fill="#171E61" opacity="1.000000" stroke="none" 
	d="
M42.000011,6.064899 
	C58.304996,6.337533 74.162033,5.911223 89.900017,7.083390 
	C105.020432,8.209561 113.791817,17.417564 114.940201,32.655426 
	C115.799530,44.057716 115.908371,55.629574 115.027740,67.023628 
	C113.689598,84.337212 103.855583,93.362259 86.354782,93.947105 
	C71.548676,94.441887 56.715561,94.126114 41.894428,94.178535 
	C40.909290,94.182014 39.924438,94.265907 38.172626,94.348587 
	C38.172626,100.171783 38.172626,105.923988 38.172626,111.676193 
	C38.172626,117.469498 38.172626,123.262802 38.172626,129.249680 
	C27.478666,129.249680 17.239874,129.249680 6.738354,129.249680 
	C6.738354,88.242233 6.738354,47.509941 6.738354,6.064898 
	C18.362648,6.064898 29.931328,6.064898 42.000011,6.064899 
M64.457825,69.701843 
	C68.279404,69.603058 72.119598,69.706169 75.917992,69.355942 
	C81.015434,68.885918 83.717743,65.635002 83.895012,60.725033 
	C84.147118,53.741962 84.129211,46.736618 83.888100,39.752476 
	C83.713577,34.697678 80.671844,31.215235 75.928833,31.118532 
	C63.495838,30.865036 51.054241,31.032995 38.410843,31.032995 
	C38.410843,43.980515 38.410843,56.542538 38.410843,69.701790 
	C46.918159,69.701790 55.193970,69.701790 64.457825,69.701843 
z"/>
<path fill="#FFBE05" opacity="1.000000" stroke="none" 
	d="
M680.151733,65.129898 
	C680.192017,53.221378 682.815613,43.062748 694.112671,37.496712 
	C696.606079,36.268227 699.443481,35.060154 702.137390,35.026058 
	C719.764099,34.802971 737.429749,34.225735 755.012512,35.129826 
	C767.632446,35.778725 776.639526,46.206749 776.937134,58.877098 
	C777.308533,74.693153 777.348694,90.532265 776.948608,106.346649 
	C776.582947,120.801186 766.487366,130.728409 752.075623,131.031281 
	C736.589294,131.356750 721.086548,131.375916 705.599976,131.070724 
	C690.270691,130.768646 680.767822,120.625916 680.285889,104.091232 
	C679.912354,91.274155 680.172913,78.438599 680.151733,65.129898 
M730.472351,58.064850 
	C726.476196,58.066490 722.476440,57.961380 718.484802,58.096359 
	C713.311096,58.271301 711.168274,60.321297 711.114563,65.478806 
	C710.994873,76.966492 711.005371,88.456718 711.094971,99.944878 
	C711.135925,105.195824 713.088989,107.338600 718.264709,107.506866 
	C725.084045,107.728569 731.920776,107.720879 738.741150,107.516220 
	C744.660828,107.338593 746.206116,105.546829 746.250000,99.399132 
	C746.313049,90.574753 746.267517,81.749580 746.267700,72.924751 
	C746.268005,58.064758 746.267761,58.064758 730.472351,58.064850 
z"/>
<path fill="#161D61" opacity="1.000000" stroke="none" 
	d="
M510.843292,106.952522 
	C516.409851,106.566566 521.503540,106.197212 526.845337,105.809868 
	C526.845337,113.379776 526.845337,120.453308 526.845337,128.755386 
	C505.103821,129.532303 483.544647,130.746063 461.977631,130.906357 
	C449.131989,131.001862 439.377960,120.452843 439.100952,107.226456 
	C438.769775,91.415047 438.746399,75.585060 439.106171,59.774872 
	C439.437225,45.225616 448.765503,35.534065 464.144043,34.642326 
	C477.912048,33.843975 491.800446,33.860100 505.568726,34.664047 
	C520.881714,35.558193 529.373047,44.340908 530.408875,59.995651 
	C531.163940,71.407608 530.556580,82.909714 530.556580,94.930519 
	C510.366943,94.930519 490.333710,94.930519 469.852234,94.930519 
	C469.852234,97.432594 469.781372,99.384079 469.866058,101.328781 
	C470.083038,106.310684 471.954163,108.364410 476.943024,108.240364 
	C488.089142,107.963242 499.228363,107.409927 510.843292,106.952522 
M474.587830,73.078461 
	C482.850159,73.078461 491.112488,73.078461 499.841675,73.078461 
	C499.841675,69.683304 499.922394,66.733322 499.823853,63.789333 
	C499.650909,58.620773 497.776428,56.654594 492.526794,56.350117 
	C489.215332,56.158047 485.884644,56.289955 482.562592,56.289093 
	C470.339478,56.285931 469.688782,57.072346 469.741425,69.289436 
	C469.754608,72.351692 470.528290,73.632523 474.587830,73.078461 
z"/>
<path fill="#171E61" opacity="1.000000" stroke="none" 
	d="
M265.611633,125.658867 
	C255.373474,130.443909 244.931396,131.700027 234.131210,131.172546 
	C221.959427,130.578064 212.524277,123.275734 210.780655,111.288521 
	C209.744370,104.164291 209.889053,96.604759 211.037079,89.488464 
	C212.734421,78.966965 221.106262,71.830498 231.736130,70.981262 
	C239.520920,70.359329 247.375275,70.577492 255.199371,70.488228 
	C260.680389,70.425697 266.162689,70.476166 271.563721,70.476166 
	C274.405670,60.602100 271.749817,56.864109 262.084351,57.336857 
	C249.448196,57.954910 236.826874,58.873901 224.197372,59.633327 
	C222.582870,59.730404 220.957520,59.646622 219.086243,59.646622 
	C219.086243,52.449043 219.086243,45.367191 219.086243,37.771095 
	C228.287231,36.970676 237.360367,35.854084 246.464386,35.470478 
	C258.420837,34.966690 270.443207,34.349918 282.359802,35.067184 
	C293.428070,35.733391 302.505615,44.648918 302.782745,55.553917 
	C303.404053,80.000954 302.977325,104.474617 302.977325,129.230438 
	C294.143433,129.230438 285.372009,129.230438 276.246185,129.230438 
	C275.585724,126.737495 274.883575,124.087341 274.105835,121.151794 
	C271.167419,122.714569 268.562012,124.100243 265.611633,125.658867 
M256.877014,106.317177 
	C259.014832,106.014236 261.192169,105.877678 263.283813,105.380554 
	C274.399597,102.738617 272.479523,105.200813 272.421295,93.794930 
	C272.419800,93.511673 272.138245,93.229836 271.928833,92.837875 
	C271.536743,92.727013 271.076630,92.485123 270.615509,92.483215 
	C263.127930,92.452194 255.638077,92.339638 248.153259,92.481956 
	C242.822693,92.583321 240.775894,94.793777 240.826187,99.782944 
	C240.874405,104.564766 243.078506,106.614578 248.514893,106.714027 
	C251.003143,106.759537 253.496246,106.540947 256.877014,106.317177 
z"/>
<path fill="#FFBE06" opacity="1.000000" stroke="none" 
	d="
M619.316223,34.264526 
	C623.931213,34.422836 628.133789,34.227905 632.226562,34.807823 
	C644.828918,36.593513 653.447083,45.181824 653.723083,57.845261 
	C654.237976,81.474045 653.870972,105.122047 653.870972,129.177551 
	C643.652771,129.177551 633.617188,129.177551 622.995789,129.177551 
	C622.995789,127.370094 622.995789,125.598320 622.995789,123.826538 
	C622.995789,105.338875 623.006226,86.851212 622.990112,68.363564 
	C622.984314,61.723583 621.294739,59.698860 614.848328,60.026791 
	C607.902466,60.380123 600.991028,61.418335 594.066284,62.173824 
	C590.655945,62.545895 589.601685,64.304413 589.641174,67.845268 
	C589.847168,86.330635 589.737122,104.819519 589.737122,123.307182 
	C589.737122,125.122383 589.737183,126.937584 589.737183,129.172607 
	C579.359375,129.172607 569.321411,129.172607 559.058838,129.172607 
	C559.058838,98.244026 559.058838,67.483536 559.058838,36.392380 
	C567.921448,36.392380 576.675232,36.392380 585.830444,36.392380 
	C586.510071,38.842960 587.240906,41.478359 588.107666,44.603851 
	C597.795410,38.605747 607.934753,35.214626 619.316223,34.264526 
z"/>
<path fill="#171E61" opacity="1.000000" stroke="none" 
	d="
M346.235901,38.011669 
	C350.042694,37.304871 353.460114,36.185658 356.887939,36.152596 
	C375.212128,35.975842 393.538910,36.068157 411.864807,36.079861 
	C412.500275,36.080265 413.135681,36.211922 414.024658,36.310528 
	C414.024658,44.078754 414.024658,51.676304 414.024658,59.933880 
	C412.460480,59.933880 410.858643,59.933861 409.256775,59.933884 
	C395.762268,59.934086 382.267578,59.894791 368.773285,59.951836 
	C362.413422,59.978722 360.763611,61.630405 360.725586,67.947182 
	C360.664368,78.109352 360.699432,88.272171 360.711578,98.434700 
	C360.720856,106.205719 362.257690,107.809395 370.196472,107.436592 
	C382.834717,106.843124 395.461853,106.013542 408.093781,105.284889 
	C409.908600,105.180206 411.723785,105.081520 413.924164,104.958511 
	C413.924164,112.512764 413.924164,119.894012 413.924164,128.025253 
	C401.142700,128.987137 388.266052,130.092361 375.369659,130.870392 
	C368.726807,131.271149 362.048126,131.195557 355.386902,131.149384 
	C340.342529,131.045090 330.149994,121.272926 329.891327,106.321327 
	C329.640625,91.831558 329.735199,77.333153 329.867889,62.840271 
	C329.973450,51.307652 334.909912,42.719868 346.235901,38.011669 
z"/>
<path fill="#161D60" opacity="1.000000" stroke="none" 
	d="
M142.069244,9.253468 
	C143.053848,7.874688 144.020905,6.210715 145.024368,6.188458 
	C154.155396,5.985934 163.292770,6.069612 173.001602,6.069612 
	C173.001602,8.145896 173.001602,9.916880 173.001602,11.687863 
	C173.001602,40.351524 172.998047,69.015190 173.004074,97.678848 
	C173.005615,105.067329 174.624924,106.649467 182.175003,106.695572 
	C184.496216,106.709747 186.817596,106.697769 189.483398,106.697769 
	C189.483398,114.384819 189.483398,121.763405 189.483398,130.250458 
	C180.311752,130.474182 171.149139,131.556122 162.169586,130.705551 
	C150.187363,129.570587 142.125015,118.265259 142.090515,104.219810 
	C142.018463,74.889725 142.068527,45.559345 142.068451,16.229086 
	C142.068451,14.062628 142.068527,11.896170 142.069244,9.253468 
z"/>
<path fill="#FCFCFD" opacity="1.000000" stroke="none" 
	d="
M63.963802,69.701813 
	C55.193970,69.701790 46.918159,69.701790 38.410843,69.701790 
	C38.410843,56.542538 38.410843,43.980515 38.410843,31.032995 
	C51.054241,31.032995 63.495838,30.865036 75.928833,31.118532 
	C80.671844,31.215235 83.713577,34.697678 83.888100,39.752476 
	C84.129211,46.736618 84.147118,53.741962 83.895012,60.725033 
	C83.717743,65.635002 81.015434,68.885918 75.917992,69.355942 
	C72.119598,69.706169 68.279404,69.603058 63.963802,69.701813 
z"/>
<path fill="#FFFEFC" opacity="1.000000" stroke="none" 
	d="
M730.963440,58.064865 
	C746.267761,58.064758 746.268005,58.064758 746.267700,72.924751 
	C746.267517,81.749580 746.313049,90.574753 746.250000,99.399132 
	C746.206116,105.546829 744.660828,107.338593 738.741150,107.516220 
	C731.920776,107.720879 725.084045,107.728569 718.264709,107.506866 
	C713.088989,107.338600 711.135925,105.195824 711.094971,99.944878 
	C711.005371,88.456718 710.994873,76.966492 711.114563,65.478806 
	C711.168274,60.321297 713.311096,58.271301 718.484802,58.096359 
	C722.476440,57.961380 726.476196,58.066490 730.963440,58.064865 
z"/>
<path fill="#F9F9FB" opacity="1.000000" stroke="none" 
	d="
M474.098572,73.078415 
	C470.528290,73.632523 469.754608,72.351692 469.741425,69.289436 
	C469.688782,57.072346 470.339478,56.285931 482.562592,56.289093 
	C485.884644,56.289955 489.215332,56.158047 492.526794,56.350117 
	C497.776428,56.654594 499.650909,58.620773 499.823853,63.789333 
	C499.922394,66.733322 499.841675,69.683304 499.841675,73.078461 
	C491.112488,73.078461 482.850159,73.078461 474.098572,73.078415 
z"/>
<path fill="#F1F2F6" opacity="1.000000" stroke="none" 
	d="
M256.432068,106.379654 
	C253.496246,106.540947 251.003143,106.759537 248.514893,106.714027 
	C243.078506,106.614578 240.874405,104.564766 240.826187,99.782944 
	C240.775894,94.793777 242.822693,92.583321 248.153259,92.481956 
	C255.638077,92.339638 263.127930,92.452194 270.615509,92.483215 
	C271.076630,92.485123 271.536743,92.727013 271.928833,92.837875 
	C272.138245,93.229836 272.419800,93.511673 272.421295,93.794930 
	C272.479523,105.200813 274.399597,102.738617 263.283813,105.380554 
	C261.192169,105.877678 259.014832,106.014236 256.432068,106.379654 
z"/>
</svg>